<svg width="215" height="54" viewBox="0 0 215 54" fill="none" xmlns="http://www.w3.org/2000/svg">
<path d="M209.918 13.2364C212.202 13.2364 214.054 15.0884 214.054 17.3728C214.054 19.6573 212.202 21.5092 209.918 21.5092H194.277C191.993 21.5092 190.141 19.6573 190.141 17.3728C190.141 15.0884 191.993 13.2364 194.277 13.2364H209.918ZM195.57 9.22929C195.57 6.18809 198.035 3.72272 201.076 3.72272C204.118 3.72272 206.583 6.18809 206.583 9.22929V40.7435C206.583 41.7603 206.738 42.5531 207.048 43.1219C207.358 43.6734 207.789 44.0612 208.341 44.2853C208.91 44.5093 209.565 44.6213 210.306 44.6213C210.823 44.6213 211.34 44.5783 211.857 44.4921C212.517 44.36 213.157 44.7859 213.297 45.445L214.281 50.1045C214.563 51.4369 213.78 52.7514 212.451 53.0493C211.452 53.2905 210.237 53.437 208.806 53.4887C206.152 53.5922 203.825 53.2388 201.826 52.4288C199.844 51.6188 198.301 50.3606 197.198 48.6543C196.095 46.9481 195.553 44.7937 195.57 42.1912V9.22929Z" fill="#096EF4"/>
<path d="M179.653 53.7215C175.569 53.7215 172.053 52.8942 169.105 51.2396C166.175 49.5678 163.918 47.2066 162.332 44.156C160.746 41.0882 159.954 37.4602 159.954 33.2721C159.954 29.1875 160.746 25.6026 162.332 22.5175C163.918 19.4325 166.15 17.0282 169.028 15.3047C171.923 13.5812 175.319 12.7194 179.214 12.7194C181.833 12.7194 184.272 13.1417 186.53 13.9862C188.805 14.8135 190.787 16.063 192.476 17.7348C194.182 19.4066 195.509 21.5093 196.457 24.0428C197.405 26.5591 197.879 29.5063 197.879 32.8844C197.879 34.5549 196.525 35.9091 194.854 35.9091H167.761C165.876 35.9091 164.349 34.3813 164.349 32.4966C164.349 30.6119 165.876 29.084 167.761 29.084H183.124C185.548 29.084 187.668 26.9815 186.478 24.8701C185.789 23.6464 184.832 22.6899 183.609 22.0005C182.402 21.2938 180.998 20.9405 179.395 20.9405C177.723 20.9405 176.241 21.3283 174.948 22.1039C173.673 22.8622 172.673 23.8877 171.949 25.1803C171.225 26.4557 170.855 27.8776 170.838 29.446V35.935C170.838 37.8997 171.199 39.5974 171.923 41.0279C172.664 42.4584 173.707 43.5614 175.051 44.337C176.396 45.1126 177.99 45.5004 179.834 45.5004C181.058 45.5004 182.178 45.328 183.195 44.9833C184.212 44.6386 185.082 44.1216 185.806 43.4322C187.119 42.1816 188.696 40.9802 190.506 41.0996L191.441 41.1613C194.716 41.3774 197.092 44.5772 195.111 47.193C194.907 47.4622 194.692 47.7253 194.467 47.9822C192.881 49.7919 190.83 51.2052 188.314 52.222C185.815 53.2216 182.928 53.7215 179.653 53.7215Z" fill="#096EF4"/>
<path d="M143.837 52.9459C131.344 52.9459 121.216 42.8182 121.216 30.325V21.199C121.216 9.49112 130.707 0 142.415 0C146.31 0 149.559 0.577372 152.161 1.73212C154.764 2.88686 156.72 4.48972 158.03 6.54068C159.34 8.57441 159.995 10.9184 159.995 13.5726C159.995 15.6408 159.581 17.459 158.754 19.0274C157.926 20.5786 156.789 21.854 155.341 22.8536C153.97 23.7951 152.409 24.4754 150.658 24.8945C150.525 24.9265 150.429 25.0454 150.429 25.183C150.429 25.3405 150.553 25.4696 150.71 25.4799C152.621 25.605 154.415 26.1687 156.091 27.171C157.866 28.2223 159.305 29.6959 160.408 31.5917C161.511 33.4703 162.063 35.7109 162.063 38.3134C162.063 41.1227 161.365 43.6304 159.969 45.8365C158.59 48.0253 156.548 49.7574 153.842 51.0328C151.136 52.3082 147.801 52.9459 143.837 52.9459ZM132.41 36.7622C132.41 40.6458 135.558 43.7941 139.442 43.7941H141.536C144.655 43.7941 146.93 43.1995 148.361 42.0103C149.791 40.8038 150.507 39.201 150.507 37.2017C150.507 35.7367 150.153 34.4441 149.447 33.3238C148.74 32.2036 147.732 31.3246 146.422 30.6869C145.129 30.0492 143.587 29.7304 141.794 29.7304H139.442C135.558 29.7304 132.41 32.8786 132.41 36.7622ZM132.41 15.602C132.41 19.2214 135.344 22.1556 138.964 22.1556H140.709C142.243 22.1556 143.604 21.8884 144.793 21.3542C146 20.8026 146.948 20.0271 147.637 19.0274C148.344 18.0278 148.697 16.83 148.697 15.4339C148.697 13.5209 148.016 11.9783 146.655 10.8063C145.31 9.63436 143.397 9.04837 140.915 9.04837H138.964C135.344 9.04837 132.41 11.9825 132.41 15.602Z" fill="#096EF4"/>
<path d="M100.719 53.6956C98.1856 53.6956 95.9278 53.2561 93.9458 52.3771C91.9637 51.4809 90.3954 50.1624 89.2406 48.4217C88.1031 46.6637 87.5344 44.4749 87.5344 41.8552C87.5344 39.6491 87.9394 37.7963 88.7494 36.2969C89.5595 34.7974 90.6625 33.591 92.0585 32.6775C93.4546 31.7641 95.0402 31.0747 96.8154 30.6093C98.6078 30.144 100.486 29.8165 102.451 29.6269C104.761 29.3857 106.622 29.1616 108.035 28.9548C109.449 28.7307 110.474 28.4033 111.112 27.9724C111.75 27.5415 112.068 26.9038 112.068 26.0593V25.9042C112.068 24.2669 111.551 23.0001 110.517 22.1039C109.5 21.2077 108.053 20.7595 106.174 20.7595C104.192 20.7595 102.615 21.199 101.443 22.078C99.5309 23.484 97.4166 25.1974 95.0511 25.0053L94.8623 24.9899C91.7187 24.7346 89.4447 21.6459 91.3066 19.1C91.5192 18.8093 91.744 18.5266 91.981 18.2519C93.4977 16.4766 95.4538 15.1151 97.8495 14.1672C100.262 13.202 103.054 12.7194 106.226 12.7194C108.432 12.7194 110.543 12.9779 112.56 13.495C114.593 14.012 116.394 14.8135 117.963 15.8993C119.548 16.9851 120.798 18.3811 121.711 20.0874C122.625 21.7764 123.082 23.8015 123.082 26.1627V47.7237C123.082 50.6078 120.743 52.9459 117.859 52.9459H115.39C113.87 52.9459 112.637 51.7132 112.637 50.1926V47.6319C112.637 47.5256 112.551 47.4393 112.444 47.4393C112.372 47.4393 112.306 47.4798 112.273 47.5436C111.641 48.7416 110.806 49.8013 109.767 50.7226C108.699 51.6533 107.415 52.3857 105.915 52.92C104.416 53.4371 102.684 53.6956 100.719 53.6956ZM103.873 46.095C105.493 46.095 106.924 45.7761 108.165 45.1384C109.406 44.4835 110.379 43.6045 111.086 42.5015C111.793 41.3984 112.146 40.1489 112.146 38.7529V36.0948C112.146 35.4249 111.363 34.9585 110.724 35.1594C110.138 35.3317 109.474 35.4955 108.733 35.6506C107.992 35.7885 107.251 35.9177 106.51 36.0384C105.769 36.1418 105.097 36.2366 104.494 36.3227C103.201 36.5123 102.072 36.8139 101.107 37.2276C100.142 37.6412 99.392 38.2014 98.8577 38.908C98.3235 39.5974 98.0563 40.4591 98.0563 41.4932C98.0563 42.9927 98.5992 44.1388 99.685 44.9316C100.788 45.7072 102.184 46.095 103.873 46.095Z" fill="#096EF4"/>
<path d="M87.1853 13.2364C89.4698 13.2364 91.3217 15.0884 91.3217 17.3728C91.3217 19.6573 89.4698 21.5092 87.1853 21.5092H71.5446C69.2601 21.5092 67.4082 19.6573 67.4082 17.3728C67.4082 15.0884 69.2601 13.2364 71.5446 13.2364H87.1853ZM72.8372 9.2293C72.8372 6.1881 75.3026 3.72272 78.3438 3.72272C81.385 3.72272 83.8504 6.1881 83.8504 9.2293V40.7435C83.8504 41.7603 84.0055 42.5532 84.3157 43.1219C84.626 43.6734 85.0568 44.0612 85.6083 44.2853C86.1771 44.5093 86.832 44.6214 87.5731 44.6214C88.0902 44.6214 88.6072 44.5783 89.1243 44.4921C89.7849 44.36 90.4248 44.7859 90.5641 45.445L91.5489 50.1045C91.8305 51.4369 91.0478 52.7514 89.7189 53.0493C88.7193 53.2906 87.5042 53.437 86.0737 53.4887C83.4195 53.5922 81.0928 53.2388 79.0935 52.4288C77.1115 51.6188 75.569 50.3606 74.4659 48.6543C73.3629 46.9481 72.82 44.7937 72.8372 42.1912V9.2293Z" fill="#096EF4"/>
<path d="M56.9207 53.7215C52.836 53.7215 49.3201 52.8942 46.3729 51.2396C43.4429 49.5678 41.1852 47.2066 39.5995 44.156C38.0139 41.0882 37.2211 37.4602 37.2211 33.2721C37.2211 29.1875 38.0139 25.6026 39.5995 22.5175C41.1852 19.4325 43.4171 17.0282 46.2953 15.3047C49.1908 13.5812 52.5861 12.7194 56.4812 12.7194C59.1009 12.7194 61.5397 13.1417 63.7975 13.9862C66.0725 14.8135 68.0545 16.063 69.7435 17.7348C71.4498 19.4066 72.7769 21.5093 73.7248 24.0428C74.6727 26.5591 75.1467 29.5063 75.1467 32.8844C75.1467 34.5549 73.7925 35.9091 72.122 35.9091H45.0286C43.1439 35.9091 41.616 34.3813 41.616 32.4966C41.616 30.6119 43.1439 29.084 45.0286 29.084H60.3919C62.8153 29.084 64.9353 26.9815 63.7458 24.8701C63.0564 23.6464 62.0998 22.6899 60.8761 22.0005C59.6697 21.2938 58.265 20.9405 56.6622 20.9405C54.9904 20.9405 53.5082 21.3283 52.2155 22.1039C50.9402 22.8622 49.9405 23.8877 49.2167 25.1803C48.4928 26.4557 48.1222 27.8776 48.105 29.446V35.935C48.105 37.8997 48.4669 39.5974 49.1908 41.0279C49.9319 42.4584 50.9746 43.5614 52.319 44.337C53.6633 45.1126 55.2575 45.5004 57.1017 45.5004C58.3254 45.5004 59.4456 45.328 60.4625 44.9833C61.4794 44.6386 62.3497 44.1216 63.0736 43.4322C64.3866 42.1816 65.964 40.9802 67.7733 41.0996L68.7089 41.1613C71.9835 41.3774 74.3599 44.5772 72.3782 47.193C72.1743 47.4622 71.9596 47.7253 71.7342 47.9822C70.1486 49.7919 68.0976 51.2052 65.5813 52.222C63.0822 53.2216 60.1953 53.7215 56.9207 53.7215Z" fill="#096EF4"/>
<path d="M22.6209 52.9459C10.1277 52.9459 0 42.8182 0 30.325V21.199C0 9.49112 9.49113 0 21.199 0C25.0941 0 28.3429 0.577372 30.9454 1.73212C33.5479 2.88686 35.5041 4.48972 36.8139 6.54068C38.1238 8.57441 38.7787 10.9184 38.7787 13.5726C38.7787 15.6408 38.3651 17.459 37.5378 19.0274C36.7105 20.5786 35.573 21.854 34.1253 22.8536C32.7544 23.7951 31.1935 24.4754 29.4427 24.8945C29.3089 24.9265 29.2133 25.0454 29.2133 25.183C29.2133 25.3405 29.3375 25.4696 29.4947 25.4799C31.4056 25.605 33.199 26.1687 34.875 27.171C36.6502 28.2223 38.0893 29.6959 39.1924 31.5917C40.2954 33.4703 40.8469 35.7109 40.8469 38.3134C40.8469 41.1227 40.1489 43.6304 38.7529 45.8365C37.3741 48.0253 35.3317 49.7574 32.6258 51.0328C29.9199 52.3082 26.585 52.9459 22.6209 52.9459ZM11.1941 36.7622C11.1941 40.6458 14.3424 43.7941 18.226 43.7941H20.3201C23.4396 43.7941 25.7146 43.1995 27.1451 42.0103C28.5756 40.8038 29.2909 39.201 29.2909 37.2017C29.2909 35.7367 28.9375 34.4441 28.2309 33.3238C27.5243 32.2036 26.516 31.3246 25.2062 30.6869C23.9135 30.0492 22.371 29.7304 20.5786 29.7304H18.226C14.3424 29.7304 11.1941 32.8786 11.1941 36.7622ZM11.1941 15.602C11.1941 19.2214 14.1283 22.1556 17.7477 22.1556H19.4928C21.0267 22.1556 22.3883 21.8884 23.5775 21.3542C24.7839 20.8026 25.7318 20.0271 26.4212 19.0274C27.1279 18.0278 27.4812 16.83 27.4812 15.4339C27.4812 13.5209 26.8004 11.9783 25.4388 10.8063C24.0945 9.63436 22.1814 9.04837 19.6996 9.04837H17.7477C14.1283 9.04837 11.1941 11.9825 11.1941 15.602Z" fill="#096EF4"/>
</svg>
